<svg width="100" height="115" viewBox="0 0 100 115" xmlns="http://www.w3.org/2000/svg">
  <path d="M50,4 L87,18 L89,54 Q86,90 50,110 Q14,90 11,54 L13,18 Z"
    fill="none" stroke="#1e4d8c" stroke-width="4.5" stroke-linejoin="round" stroke-linecap="round"/>
  <g stroke="#1e4d8c" stroke-width="1.4" stroke-linecap="round" opacity="0.75">
    <line x1="50" y1="21" x2="30" y2="36"/><line x1="50" y1="21" x2="70" y2="36"/>
    <line x1="30" y1="36" x2="70" y2="36"/><line x1="30" y1="36" x2="17" y2="58"/>
    <line x1="70" y1="36" x2="83" y2="58"/><line x1="30" y1="36" x2="50" y2="58"/>
    <line x1="70" y1="36" x2="50" y2="58"/><line x1="17" y1="58" x2="50" y2="58"/>
    <line x1="83" y1="58" x2="50" y2="58"/><line x1="17" y1="58" x2="30" y2="78"/>
    <line x1="83" y1="58" x2="70" y2="78"/><line x1="50" y1="58" x2="30" y2="78"/>
    <line x1="50" y1="58" x2="70" y2="78"/><line x1="30" y1="78" x2="70" y2="78"/>
    <line x1="30" y1="78" x2="50" y2="94"/><line x1="70" y1="78" x2="50" y2="94"/>
  </g>
  <g fill="#1e4d8c">
    <circle cx="50" cy="21" r="3.8"/><circle cx="17" cy="58" r="3.8"/>
    <circle cx="83" cy="58" r="3.8"/><circle cx="50" cy="94" r="3.8"/>
  </g>
  <g fill="#4dd9ac">
    <circle cx="30" cy="36" r="3.8"/><circle cx="70" cy="36" r="3.8"/>
    <circle cx="50" cy="58" r="4.5"/><circle cx="30" cy="78" r="3.8"/>
    <circle cx="70" cy="78" r="3.8"/>
  </g>
</svg>
